<mxfile host="Electron" modified="2024-02-05T09:01:33.515Z" agent="Mozilla/5.0 (Windows NT 10.0; Win64; x64) AppleWebKit/537.36 (KHTML, like Gecko) draw.io/23.0.2 Chrome/120.0.6099.109 Electron/28.1.0 Safari/537.36" etag="NBDsZaPyveUWfzUV-_6p" version="23.0.2" type="device">
  <diagram id="7b6ww4k7DdwuQ6HDGR-F" name="Page-1">
    <mxGraphModel dx="1395" dy="1797" grid="1" gridSize="10" guides="1" tooltips="1" connect="1" arrows="1" fold="1" page="1" pageScale="1" pageWidth="850" pageHeight="1100" math="1" shadow="0">
      <root>
        <mxCell id="0" />
        <mxCell id="1" parent="0" />
        <mxCell id="4S9zkLv07gz2U7jA2SLs-1" value="&lt;span style=&quot;font-size: 16px;&quot;&gt;Before test&lt;/span&gt;" style="text;html=1;strokeColor=none;fillColor=none;align=center;verticalAlign=middle;whiteSpace=wrap;rounded=0;fontSize=8;fontColor=#000000;" parent="1" vertex="1">
          <mxGeometry x="240" y="-1040" width="100" height="30" as="geometry" />
        </mxCell>
        <mxCell id="4S9zkLv07gz2U7jA2SLs-3" value="&lt;span style=&quot;font-size: 16px;&quot;&gt;After test&lt;/span&gt;" style="text;html=1;strokeColor=none;fillColor=none;align=center;verticalAlign=middle;whiteSpace=wrap;rounded=0;fontSize=8;fontColor=#000000;" parent="1" vertex="1">
          <mxGeometry x="630" y="-1040" width="100" height="30" as="geometry" />
        </mxCell>
        <mxCell id="4S9zkLv07gz2U7jA2SLs-4" value="" style="endArrow=none;html=1;rounded=0;strokeColor=#000000;fontSize=16;fontColor=#000000;" parent="1" edge="1">
          <mxGeometry width="50" height="50" relative="1" as="geometry">
            <mxPoint x="120" y="-1000.64" as="sourcePoint" />
            <mxPoint x="840" y="-1000" as="targetPoint" />
          </mxGeometry>
        </mxCell>
        <mxCell id="4S9zkLv07gz2U7jA2SLs-5" value="" style="endArrow=none;html=1;rounded=0;strokeColor=#000000;fontSize=16;fontColor=#000000;" parent="1" edge="1">
          <mxGeometry width="50" height="50" relative="1" as="geometry">
            <mxPoint x="480" y="-1040" as="sourcePoint" />
            <mxPoint x="480" y="-480" as="targetPoint" />
          </mxGeometry>
        </mxCell>
        <mxCell id="4S9zkLv07gz2U7jA2SLs-6" value="&lt;font style=&quot;font-size: 12px;&quot;&gt;\[\frac{\color{red}{(\#\,\textrm{with disease})}}{(\#\,\textrm{ without disease})}\]&lt;/font&gt;" style="text;html=1;strokeColor=none;fillColor=none;align=center;verticalAlign=middle;whiteSpace=wrap;rounded=0;fontSize=12;fontColor=#000000;" parent="1" vertex="1">
          <mxGeometry x="220" y="-1000" width="140" height="60" as="geometry" />
        </mxCell>
        <mxCell id="4S9zkLv07gz2U7jA2SLs-7" value="" style="shape=actor;whiteSpace=wrap;html=1;strokeColor=#b85450;fontSize=12;fillColor=#f8cecc;" parent="1" vertex="1">
          <mxGeometry x="140" y="-920" width="20" height="30" as="geometry" />
        </mxCell>
        <mxCell id="4S9zkLv07gz2U7jA2SLs-9" value="" style="shape=actor;whiteSpace=wrap;html=1;strokeColor=#666666;fontSize=12;fillColor=#f5f5f5;fontColor=#333333;" parent="1" vertex="1">
          <mxGeometry x="180" y="-920" width="20" height="30" as="geometry" />
        </mxCell>
        <mxCell id="4S9zkLv07gz2U7jA2SLs-10" value="" style="shape=actor;whiteSpace=wrap;html=1;strokeColor=#666666;fontSize=12;fillColor=#f5f5f5;fontColor=#333333;" parent="1" vertex="1">
          <mxGeometry x="210" y="-920" width="20" height="30" as="geometry" />
        </mxCell>
        <mxCell id="4S9zkLv07gz2U7jA2SLs-11" value="" style="shape=actor;whiteSpace=wrap;html=1;strokeColor=#666666;fontSize=12;fillColor=#f5f5f5;fontColor=#333333;" parent="1" vertex="1">
          <mxGeometry x="240" y="-920" width="20" height="30" as="geometry" />
        </mxCell>
        <mxCell id="4S9zkLv07gz2U7jA2SLs-12" value="" style="shape=actor;whiteSpace=wrap;html=1;strokeColor=#666666;fontSize=12;fillColor=#f5f5f5;fontColor=#333333;" parent="1" vertex="1">
          <mxGeometry x="270" y="-920" width="20" height="30" as="geometry" />
        </mxCell>
        <mxCell id="4S9zkLv07gz2U7jA2SLs-13" value="" style="shape=actor;whiteSpace=wrap;html=1;strokeColor=#666666;fontSize=12;fillColor=#f5f5f5;fontColor=#333333;" parent="1" vertex="1">
          <mxGeometry x="300" y="-920" width="20" height="30" as="geometry" />
        </mxCell>
        <mxCell id="4S9zkLv07gz2U7jA2SLs-14" value="" style="shape=actor;whiteSpace=wrap;html=1;strokeColor=#666666;fontSize=12;fillColor=#f5f5f5;fontColor=#333333;" parent="1" vertex="1">
          <mxGeometry x="330" y="-920" width="20" height="30" as="geometry" />
        </mxCell>
        <mxCell id="4S9zkLv07gz2U7jA2SLs-15" value="" style="shape=actor;whiteSpace=wrap;html=1;strokeColor=#666666;fontSize=12;fillColor=#f5f5f5;fontColor=#333333;" parent="1" vertex="1">
          <mxGeometry x="360" y="-920" width="20" height="30" as="geometry" />
        </mxCell>
        <mxCell id="4S9zkLv07gz2U7jA2SLs-16" value="" style="shape=actor;whiteSpace=wrap;html=1;strokeColor=#666666;fontSize=12;fillColor=#f5f5f5;fontColor=#333333;" parent="1" vertex="1">
          <mxGeometry x="390" y="-920" width="20" height="30" as="geometry" />
        </mxCell>
        <mxCell id="4S9zkLv07gz2U7jA2SLs-17" value="" style="shape=actor;whiteSpace=wrap;html=1;strokeColor=#666666;fontSize=12;fillColor=#f5f5f5;fontColor=#333333;" parent="1" vertex="1">
          <mxGeometry x="420" y="-920" width="20" height="30" as="geometry" />
        </mxCell>
        <mxCell id="4S9zkLv07gz2U7jA2SLs-28" value="" style="shape=actor;whiteSpace=wrap;html=1;strokeColor=#b85450;fontSize=12;fillColor=#f8cecc;" parent="1" vertex="1">
          <mxGeometry x="140" y="-880" width="20" height="30" as="geometry" />
        </mxCell>
        <mxCell id="4S9zkLv07gz2U7jA2SLs-29" value="" style="shape=actor;whiteSpace=wrap;html=1;strokeColor=#666666;fontSize=12;fillColor=#f5f5f5;fontColor=#333333;" parent="1" vertex="1">
          <mxGeometry x="180" y="-880" width="20" height="30" as="geometry" />
        </mxCell>
        <mxCell id="4S9zkLv07gz2U7jA2SLs-30" value="" style="shape=actor;whiteSpace=wrap;html=1;strokeColor=#666666;fontSize=12;fillColor=#f5f5f5;fontColor=#333333;" parent="1" vertex="1">
          <mxGeometry x="210" y="-880" width="20" height="30" as="geometry" />
        </mxCell>
        <mxCell id="4S9zkLv07gz2U7jA2SLs-31" value="" style="shape=actor;whiteSpace=wrap;html=1;strokeColor=#666666;fontSize=12;fillColor=#f5f5f5;fontColor=#333333;" parent="1" vertex="1">
          <mxGeometry x="240" y="-880" width="20" height="30" as="geometry" />
        </mxCell>
        <mxCell id="4S9zkLv07gz2U7jA2SLs-32" value="" style="shape=actor;whiteSpace=wrap;html=1;strokeColor=#666666;fontSize=12;fillColor=#f5f5f5;fontColor=#333333;" parent="1" vertex="1">
          <mxGeometry x="270" y="-880" width="20" height="30" as="geometry" />
        </mxCell>
        <mxCell id="4S9zkLv07gz2U7jA2SLs-33" value="" style="shape=actor;whiteSpace=wrap;html=1;strokeColor=#666666;fontSize=12;fillColor=#f5f5f5;fontColor=#333333;" parent="1" vertex="1">
          <mxGeometry x="300" y="-880" width="20" height="30" as="geometry" />
        </mxCell>
        <mxCell id="4S9zkLv07gz2U7jA2SLs-34" value="" style="shape=actor;whiteSpace=wrap;html=1;strokeColor=#666666;fontSize=12;fillColor=#f5f5f5;fontColor=#333333;" parent="1" vertex="1">
          <mxGeometry x="330" y="-880" width="20" height="30" as="geometry" />
        </mxCell>
        <mxCell id="4S9zkLv07gz2U7jA2SLs-35" value="" style="shape=actor;whiteSpace=wrap;html=1;strokeColor=#666666;fontSize=12;fillColor=#f5f5f5;fontColor=#333333;" parent="1" vertex="1">
          <mxGeometry x="360" y="-880" width="20" height="30" as="geometry" />
        </mxCell>
        <mxCell id="4S9zkLv07gz2U7jA2SLs-36" value="" style="shape=actor;whiteSpace=wrap;html=1;strokeColor=#666666;fontSize=12;fillColor=#f5f5f5;fontColor=#333333;" parent="1" vertex="1">
          <mxGeometry x="390" y="-880" width="20" height="30" as="geometry" />
        </mxCell>
        <mxCell id="4S9zkLv07gz2U7jA2SLs-37" value="" style="shape=actor;whiteSpace=wrap;html=1;strokeColor=#666666;fontSize=12;fillColor=#f5f5f5;fontColor=#333333;" parent="1" vertex="1">
          <mxGeometry x="420" y="-880" width="20" height="30" as="geometry" />
        </mxCell>
        <mxCell id="4S9zkLv07gz2U7jA2SLs-38" value="" style="shape=actor;whiteSpace=wrap;html=1;strokeColor=#b85450;fontSize=12;fillColor=#f8cecc;" parent="1" vertex="1">
          <mxGeometry x="140" y="-840" width="20" height="30" as="geometry" />
        </mxCell>
        <mxCell id="4S9zkLv07gz2U7jA2SLs-39" value="" style="shape=actor;whiteSpace=wrap;html=1;strokeColor=#666666;fontSize=12;fillColor=#f5f5f5;fontColor=#333333;" parent="1" vertex="1">
          <mxGeometry x="180" y="-840" width="20" height="30" as="geometry" />
        </mxCell>
        <mxCell id="4S9zkLv07gz2U7jA2SLs-40" value="" style="shape=actor;whiteSpace=wrap;html=1;strokeColor=#666666;fontSize=12;fillColor=#f5f5f5;fontColor=#333333;" parent="1" vertex="1">
          <mxGeometry x="210" y="-840" width="20" height="30" as="geometry" />
        </mxCell>
        <mxCell id="4S9zkLv07gz2U7jA2SLs-41" value="" style="shape=actor;whiteSpace=wrap;html=1;strokeColor=#666666;fontSize=12;fillColor=#f5f5f5;fontColor=#333333;" parent="1" vertex="1">
          <mxGeometry x="240" y="-840" width="20" height="30" as="geometry" />
        </mxCell>
        <mxCell id="4S9zkLv07gz2U7jA2SLs-42" value="" style="shape=actor;whiteSpace=wrap;html=1;strokeColor=#666666;fontSize=12;fillColor=#f5f5f5;fontColor=#333333;" parent="1" vertex="1">
          <mxGeometry x="270" y="-840" width="20" height="30" as="geometry" />
        </mxCell>
        <mxCell id="4S9zkLv07gz2U7jA2SLs-43" value="" style="shape=actor;whiteSpace=wrap;html=1;strokeColor=#666666;fontSize=12;fillColor=#f5f5f5;fontColor=#333333;" parent="1" vertex="1">
          <mxGeometry x="300" y="-840" width="20" height="30" as="geometry" />
        </mxCell>
        <mxCell id="4S9zkLv07gz2U7jA2SLs-44" value="" style="shape=actor;whiteSpace=wrap;html=1;strokeColor=#666666;fontSize=12;fillColor=#f5f5f5;fontColor=#333333;" parent="1" vertex="1">
          <mxGeometry x="330" y="-840" width="20" height="30" as="geometry" />
        </mxCell>
        <mxCell id="4S9zkLv07gz2U7jA2SLs-45" value="" style="shape=actor;whiteSpace=wrap;html=1;strokeColor=#666666;fontSize=12;fillColor=#f5f5f5;fontColor=#333333;" parent="1" vertex="1">
          <mxGeometry x="360" y="-840" width="20" height="30" as="geometry" />
        </mxCell>
        <mxCell id="4S9zkLv07gz2U7jA2SLs-46" value="" style="shape=actor;whiteSpace=wrap;html=1;strokeColor=#666666;fontSize=12;fillColor=#f5f5f5;fontColor=#333333;" parent="1" vertex="1">
          <mxGeometry x="390" y="-840" width="20" height="30" as="geometry" />
        </mxCell>
        <mxCell id="4S9zkLv07gz2U7jA2SLs-47" value="" style="shape=actor;whiteSpace=wrap;html=1;strokeColor=#666666;fontSize=12;fillColor=#f5f5f5;fontColor=#333333;" parent="1" vertex="1">
          <mxGeometry x="420" y="-840" width="20" height="30" as="geometry" />
        </mxCell>
        <mxCell id="4S9zkLv07gz2U7jA2SLs-48" value="" style="shape=actor;whiteSpace=wrap;html=1;strokeColor=#b85450;fontSize=12;fillColor=#f8cecc;" parent="1" vertex="1">
          <mxGeometry x="140" y="-800" width="20" height="30" as="geometry" />
        </mxCell>
        <mxCell id="4S9zkLv07gz2U7jA2SLs-49" value="" style="shape=actor;whiteSpace=wrap;html=1;strokeColor=#666666;fontSize=12;fillColor=#f5f5f5;fontColor=#333333;" parent="1" vertex="1">
          <mxGeometry x="180" y="-800" width="20" height="30" as="geometry" />
        </mxCell>
        <mxCell id="4S9zkLv07gz2U7jA2SLs-50" value="" style="shape=actor;whiteSpace=wrap;html=1;strokeColor=#666666;fontSize=12;fillColor=#f5f5f5;fontColor=#333333;" parent="1" vertex="1">
          <mxGeometry x="210" y="-800" width="20" height="30" as="geometry" />
        </mxCell>
        <mxCell id="4S9zkLv07gz2U7jA2SLs-51" value="" style="shape=actor;whiteSpace=wrap;html=1;strokeColor=#666666;fontSize=12;fillColor=#f5f5f5;fontColor=#333333;" parent="1" vertex="1">
          <mxGeometry x="240" y="-800" width="20" height="30" as="geometry" />
        </mxCell>
        <mxCell id="4S9zkLv07gz2U7jA2SLs-52" value="" style="shape=actor;whiteSpace=wrap;html=1;strokeColor=#666666;fontSize=12;fillColor=#f5f5f5;fontColor=#333333;" parent="1" vertex="1">
          <mxGeometry x="270" y="-800" width="20" height="30" as="geometry" />
        </mxCell>
        <mxCell id="4S9zkLv07gz2U7jA2SLs-53" value="" style="shape=actor;whiteSpace=wrap;html=1;strokeColor=#666666;fontSize=12;fillColor=#f5f5f5;fontColor=#333333;" parent="1" vertex="1">
          <mxGeometry x="300" y="-800" width="20" height="30" as="geometry" />
        </mxCell>
        <mxCell id="4S9zkLv07gz2U7jA2SLs-54" value="" style="shape=actor;whiteSpace=wrap;html=1;strokeColor=#666666;fontSize=12;fillColor=#f5f5f5;fontColor=#333333;" parent="1" vertex="1">
          <mxGeometry x="330" y="-800" width="20" height="30" as="geometry" />
        </mxCell>
        <mxCell id="4S9zkLv07gz2U7jA2SLs-55" value="" style="shape=actor;whiteSpace=wrap;html=1;strokeColor=#666666;fontSize=12;fillColor=#f5f5f5;fontColor=#333333;" parent="1" vertex="1">
          <mxGeometry x="360" y="-800" width="20" height="30" as="geometry" />
        </mxCell>
        <mxCell id="4S9zkLv07gz2U7jA2SLs-56" value="" style="shape=actor;whiteSpace=wrap;html=1;strokeColor=#666666;fontSize=12;fillColor=#f5f5f5;fontColor=#333333;" parent="1" vertex="1">
          <mxGeometry x="390" y="-800" width="20" height="30" as="geometry" />
        </mxCell>
        <mxCell id="4S9zkLv07gz2U7jA2SLs-57" value="" style="shape=actor;whiteSpace=wrap;html=1;strokeColor=#666666;fontSize=12;fillColor=#f5f5f5;fontColor=#333333;" parent="1" vertex="1">
          <mxGeometry x="420" y="-800" width="20" height="30" as="geometry" />
        </mxCell>
        <mxCell id="4S9zkLv07gz2U7jA2SLs-58" value="" style="shape=actor;whiteSpace=wrap;html=1;strokeColor=#b85450;fontSize=12;fillColor=#f8cecc;" parent="1" vertex="1">
          <mxGeometry x="140" y="-760" width="20" height="30" as="geometry" />
        </mxCell>
        <mxCell id="4S9zkLv07gz2U7jA2SLs-59" value="" style="shape=actor;whiteSpace=wrap;html=1;strokeColor=#666666;fontSize=12;fillColor=#f5f5f5;fontColor=#333333;" parent="1" vertex="1">
          <mxGeometry x="180" y="-760" width="20" height="30" as="geometry" />
        </mxCell>
        <mxCell id="4S9zkLv07gz2U7jA2SLs-60" value="" style="shape=actor;whiteSpace=wrap;html=1;strokeColor=#666666;fontSize=12;fillColor=#f5f5f5;fontColor=#333333;" parent="1" vertex="1">
          <mxGeometry x="210" y="-760" width="20" height="30" as="geometry" />
        </mxCell>
        <mxCell id="4S9zkLv07gz2U7jA2SLs-61" value="" style="shape=actor;whiteSpace=wrap;html=1;strokeColor=#666666;fontSize=12;fillColor=#f5f5f5;fontColor=#333333;" parent="1" vertex="1">
          <mxGeometry x="240" y="-760" width="20" height="30" as="geometry" />
        </mxCell>
        <mxCell id="4S9zkLv07gz2U7jA2SLs-62" value="" style="shape=actor;whiteSpace=wrap;html=1;strokeColor=#666666;fontSize=12;fillColor=#f5f5f5;fontColor=#333333;" parent="1" vertex="1">
          <mxGeometry x="270" y="-760" width="20" height="30" as="geometry" />
        </mxCell>
        <mxCell id="4S9zkLv07gz2U7jA2SLs-63" value="" style="shape=actor;whiteSpace=wrap;html=1;strokeColor=#666666;fontSize=12;fillColor=#f5f5f5;fontColor=#333333;" parent="1" vertex="1">
          <mxGeometry x="300" y="-760" width="20" height="30" as="geometry" />
        </mxCell>
        <mxCell id="4S9zkLv07gz2U7jA2SLs-64" value="" style="shape=actor;whiteSpace=wrap;html=1;strokeColor=#666666;fontSize=12;fillColor=#f5f5f5;fontColor=#333333;" parent="1" vertex="1">
          <mxGeometry x="330" y="-760" width="20" height="30" as="geometry" />
        </mxCell>
        <mxCell id="4S9zkLv07gz2U7jA2SLs-65" value="" style="shape=actor;whiteSpace=wrap;html=1;strokeColor=#666666;fontSize=12;fillColor=#f5f5f5;fontColor=#333333;" parent="1" vertex="1">
          <mxGeometry x="360" y="-760" width="20" height="30" as="geometry" />
        </mxCell>
        <mxCell id="4S9zkLv07gz2U7jA2SLs-66" value="" style="shape=actor;whiteSpace=wrap;html=1;strokeColor=#666666;fontSize=12;fillColor=#f5f5f5;fontColor=#333333;" parent="1" vertex="1">
          <mxGeometry x="390" y="-760" width="20" height="30" as="geometry" />
        </mxCell>
        <mxCell id="4S9zkLv07gz2U7jA2SLs-67" value="" style="shape=actor;whiteSpace=wrap;html=1;strokeColor=#666666;fontSize=12;fillColor=#f5f5f5;fontColor=#333333;" parent="1" vertex="1">
          <mxGeometry x="420" y="-760" width="20" height="30" as="geometry" />
        </mxCell>
        <mxCell id="4S9zkLv07gz2U7jA2SLs-68" value="" style="shape=actor;whiteSpace=wrap;html=1;strokeColor=#b85450;fontSize=12;fillColor=#f8cecc;" parent="1" vertex="1">
          <mxGeometry x="140" y="-720" width="20" height="30" as="geometry" />
        </mxCell>
        <mxCell id="4S9zkLv07gz2U7jA2SLs-69" value="" style="shape=actor;whiteSpace=wrap;html=1;strokeColor=#666666;fontSize=12;fillColor=#f5f5f5;fontColor=#333333;" parent="1" vertex="1">
          <mxGeometry x="180" y="-720" width="20" height="30" as="geometry" />
        </mxCell>
        <mxCell id="4S9zkLv07gz2U7jA2SLs-70" value="" style="shape=actor;whiteSpace=wrap;html=1;strokeColor=#666666;fontSize=12;fillColor=#f5f5f5;fontColor=#333333;" parent="1" vertex="1">
          <mxGeometry x="210" y="-720" width="20" height="30" as="geometry" />
        </mxCell>
        <mxCell id="4S9zkLv07gz2U7jA2SLs-71" value="" style="shape=actor;whiteSpace=wrap;html=1;strokeColor=#666666;fontSize=12;fillColor=#f5f5f5;fontColor=#333333;" parent="1" vertex="1">
          <mxGeometry x="240" y="-720" width="20" height="30" as="geometry" />
        </mxCell>
        <mxCell id="4S9zkLv07gz2U7jA2SLs-72" value="" style="shape=actor;whiteSpace=wrap;html=1;strokeColor=#666666;fontSize=12;fillColor=#f5f5f5;fontColor=#333333;" parent="1" vertex="1">
          <mxGeometry x="270" y="-720" width="20" height="30" as="geometry" />
        </mxCell>
        <mxCell id="4S9zkLv07gz2U7jA2SLs-73" value="" style="shape=actor;whiteSpace=wrap;html=1;strokeColor=#666666;fontSize=12;fillColor=#f5f5f5;fontColor=#333333;" parent="1" vertex="1">
          <mxGeometry x="300" y="-720" width="20" height="30" as="geometry" />
        </mxCell>
        <mxCell id="4S9zkLv07gz2U7jA2SLs-74" value="" style="shape=actor;whiteSpace=wrap;html=1;strokeColor=#666666;fontSize=12;fillColor=#f5f5f5;fontColor=#333333;" parent="1" vertex="1">
          <mxGeometry x="330" y="-720" width="20" height="30" as="geometry" />
        </mxCell>
        <mxCell id="4S9zkLv07gz2U7jA2SLs-75" value="" style="shape=actor;whiteSpace=wrap;html=1;strokeColor=#666666;fontSize=12;fillColor=#f5f5f5;fontColor=#333333;" parent="1" vertex="1">
          <mxGeometry x="360" y="-720" width="20" height="30" as="geometry" />
        </mxCell>
        <mxCell id="4S9zkLv07gz2U7jA2SLs-76" value="" style="shape=actor;whiteSpace=wrap;html=1;strokeColor=#666666;fontSize=12;fillColor=#f5f5f5;fontColor=#333333;" parent="1" vertex="1">
          <mxGeometry x="390" y="-720" width="20" height="30" as="geometry" />
        </mxCell>
        <mxCell id="4S9zkLv07gz2U7jA2SLs-77" value="" style="shape=actor;whiteSpace=wrap;html=1;strokeColor=#666666;fontSize=12;fillColor=#f5f5f5;fontColor=#333333;" parent="1" vertex="1">
          <mxGeometry x="420" y="-720" width="20" height="30" as="geometry" />
        </mxCell>
        <mxCell id="4S9zkLv07gz2U7jA2SLs-78" value="" style="shape=actor;whiteSpace=wrap;html=1;strokeColor=#b85450;fontSize=12;fillColor=#f8cecc;" parent="1" vertex="1">
          <mxGeometry x="140" y="-680" width="20" height="30" as="geometry" />
        </mxCell>
        <mxCell id="4S9zkLv07gz2U7jA2SLs-79" value="" style="shape=actor;whiteSpace=wrap;html=1;strokeColor=#666666;fontSize=12;fillColor=#f5f5f5;fontColor=#333333;" parent="1" vertex="1">
          <mxGeometry x="180" y="-680" width="20" height="30" as="geometry" />
        </mxCell>
        <mxCell id="4S9zkLv07gz2U7jA2SLs-80" value="" style="shape=actor;whiteSpace=wrap;html=1;strokeColor=#666666;fontSize=12;fillColor=#f5f5f5;fontColor=#333333;" parent="1" vertex="1">
          <mxGeometry x="210" y="-680" width="20" height="30" as="geometry" />
        </mxCell>
        <mxCell id="4S9zkLv07gz2U7jA2SLs-81" value="" style="shape=actor;whiteSpace=wrap;html=1;strokeColor=#666666;fontSize=12;fillColor=#f5f5f5;fontColor=#333333;" parent="1" vertex="1">
          <mxGeometry x="240" y="-680" width="20" height="30" as="geometry" />
        </mxCell>
        <mxCell id="4S9zkLv07gz2U7jA2SLs-82" value="" style="shape=actor;whiteSpace=wrap;html=1;strokeColor=#666666;fontSize=12;fillColor=#f5f5f5;fontColor=#333333;" parent="1" vertex="1">
          <mxGeometry x="270" y="-680" width="20" height="30" as="geometry" />
        </mxCell>
        <mxCell id="4S9zkLv07gz2U7jA2SLs-83" value="" style="shape=actor;whiteSpace=wrap;html=1;strokeColor=#666666;fontSize=12;fillColor=#f5f5f5;fontColor=#333333;" parent="1" vertex="1">
          <mxGeometry x="300" y="-680" width="20" height="30" as="geometry" />
        </mxCell>
        <mxCell id="4S9zkLv07gz2U7jA2SLs-84" value="" style="shape=actor;whiteSpace=wrap;html=1;strokeColor=#666666;fontSize=12;fillColor=#f5f5f5;fontColor=#333333;" parent="1" vertex="1">
          <mxGeometry x="330" y="-680" width="20" height="30" as="geometry" />
        </mxCell>
        <mxCell id="4S9zkLv07gz2U7jA2SLs-85" value="" style="shape=actor;whiteSpace=wrap;html=1;strokeColor=#666666;fontSize=12;fillColor=#f5f5f5;fontColor=#333333;" parent="1" vertex="1">
          <mxGeometry x="360" y="-680" width="20" height="30" as="geometry" />
        </mxCell>
        <mxCell id="4S9zkLv07gz2U7jA2SLs-86" value="" style="shape=actor;whiteSpace=wrap;html=1;strokeColor=#666666;fontSize=12;fillColor=#f5f5f5;fontColor=#333333;" parent="1" vertex="1">
          <mxGeometry x="390" y="-680" width="20" height="30" as="geometry" />
        </mxCell>
        <mxCell id="4S9zkLv07gz2U7jA2SLs-87" value="" style="shape=actor;whiteSpace=wrap;html=1;strokeColor=#666666;fontSize=12;fillColor=#f5f5f5;fontColor=#333333;" parent="1" vertex="1">
          <mxGeometry x="420" y="-680" width="20" height="30" as="geometry" />
        </mxCell>
        <mxCell id="4S9zkLv07gz2U7jA2SLs-88" value="" style="shape=actor;whiteSpace=wrap;html=1;strokeColor=#b85450;fontSize=12;fillColor=#f8cecc;" parent="1" vertex="1">
          <mxGeometry x="140" y="-640" width="20" height="30" as="geometry" />
        </mxCell>
        <mxCell id="4S9zkLv07gz2U7jA2SLs-89" value="" style="shape=actor;whiteSpace=wrap;html=1;strokeColor=#666666;fontSize=12;fillColor=#f5f5f5;fontColor=#333333;" parent="1" vertex="1">
          <mxGeometry x="180" y="-640" width="20" height="30" as="geometry" />
        </mxCell>
        <mxCell id="4S9zkLv07gz2U7jA2SLs-90" value="" style="shape=actor;whiteSpace=wrap;html=1;strokeColor=#666666;fontSize=12;fillColor=#f5f5f5;fontColor=#333333;" parent="1" vertex="1">
          <mxGeometry x="210" y="-640" width="20" height="30" as="geometry" />
        </mxCell>
        <mxCell id="4S9zkLv07gz2U7jA2SLs-91" value="" style="shape=actor;whiteSpace=wrap;html=1;strokeColor=#666666;fontSize=12;fillColor=#f5f5f5;fontColor=#333333;" parent="1" vertex="1">
          <mxGeometry x="240" y="-640" width="20" height="30" as="geometry" />
        </mxCell>
        <mxCell id="4S9zkLv07gz2U7jA2SLs-92" value="" style="shape=actor;whiteSpace=wrap;html=1;strokeColor=#666666;fontSize=12;fillColor=#f5f5f5;fontColor=#333333;" parent="1" vertex="1">
          <mxGeometry x="270" y="-640" width="20" height="30" as="geometry" />
        </mxCell>
        <mxCell id="4S9zkLv07gz2U7jA2SLs-93" value="" style="shape=actor;whiteSpace=wrap;html=1;strokeColor=#666666;fontSize=12;fillColor=#f5f5f5;fontColor=#333333;" parent="1" vertex="1">
          <mxGeometry x="300" y="-640" width="20" height="30" as="geometry" />
        </mxCell>
        <mxCell id="4S9zkLv07gz2U7jA2SLs-94" value="" style="shape=actor;whiteSpace=wrap;html=1;strokeColor=#666666;fontSize=12;fillColor=#f5f5f5;fontColor=#333333;" parent="1" vertex="1">
          <mxGeometry x="330" y="-640" width="20" height="30" as="geometry" />
        </mxCell>
        <mxCell id="4S9zkLv07gz2U7jA2SLs-95" value="" style="shape=actor;whiteSpace=wrap;html=1;strokeColor=#666666;fontSize=12;fillColor=#f5f5f5;fontColor=#333333;" parent="1" vertex="1">
          <mxGeometry x="360" y="-640" width="20" height="30" as="geometry" />
        </mxCell>
        <mxCell id="4S9zkLv07gz2U7jA2SLs-96" value="" style="shape=actor;whiteSpace=wrap;html=1;strokeColor=#666666;fontSize=12;fillColor=#f5f5f5;fontColor=#333333;" parent="1" vertex="1">
          <mxGeometry x="390" y="-640" width="20" height="30" as="geometry" />
        </mxCell>
        <mxCell id="4S9zkLv07gz2U7jA2SLs-97" value="" style="shape=actor;whiteSpace=wrap;html=1;strokeColor=#666666;fontSize=12;fillColor=#f5f5f5;fontColor=#333333;" parent="1" vertex="1">
          <mxGeometry x="420" y="-640" width="20" height="30" as="geometry" />
        </mxCell>
        <mxCell id="4S9zkLv07gz2U7jA2SLs-98" value="" style="shape=actor;whiteSpace=wrap;html=1;strokeColor=#b85450;fontSize=12;fillColor=#f8cecc;" parent="1" vertex="1">
          <mxGeometry x="140" y="-600" width="20" height="30" as="geometry" />
        </mxCell>
        <mxCell id="4S9zkLv07gz2U7jA2SLs-99" value="" style="shape=actor;whiteSpace=wrap;html=1;strokeColor=#666666;fontSize=12;fillColor=#f5f5f5;fontColor=#333333;" parent="1" vertex="1">
          <mxGeometry x="180" y="-600" width="20" height="30" as="geometry" />
        </mxCell>
        <mxCell id="4S9zkLv07gz2U7jA2SLs-100" value="" style="shape=actor;whiteSpace=wrap;html=1;strokeColor=#666666;fontSize=12;fillColor=#f5f5f5;fontColor=#333333;" parent="1" vertex="1">
          <mxGeometry x="210" y="-600" width="20" height="30" as="geometry" />
        </mxCell>
        <mxCell id="4S9zkLv07gz2U7jA2SLs-101" value="" style="shape=actor;whiteSpace=wrap;html=1;strokeColor=#666666;fontSize=12;fillColor=#f5f5f5;fontColor=#333333;" parent="1" vertex="1">
          <mxGeometry x="240" y="-600" width="20" height="30" as="geometry" />
        </mxCell>
        <mxCell id="4S9zkLv07gz2U7jA2SLs-102" value="" style="shape=actor;whiteSpace=wrap;html=1;strokeColor=#666666;fontSize=12;fillColor=#f5f5f5;fontColor=#333333;" parent="1" vertex="1">
          <mxGeometry x="270" y="-600" width="20" height="30" as="geometry" />
        </mxCell>
        <mxCell id="4S9zkLv07gz2U7jA2SLs-103" value="" style="shape=actor;whiteSpace=wrap;html=1;strokeColor=#666666;fontSize=12;fillColor=#f5f5f5;fontColor=#333333;" parent="1" vertex="1">
          <mxGeometry x="300" y="-600" width="20" height="30" as="geometry" />
        </mxCell>
        <mxCell id="4S9zkLv07gz2U7jA2SLs-104" value="" style="shape=actor;whiteSpace=wrap;html=1;strokeColor=#666666;fontSize=12;fillColor=#f5f5f5;fontColor=#333333;" parent="1" vertex="1">
          <mxGeometry x="330" y="-600" width="20" height="30" as="geometry" />
        </mxCell>
        <mxCell id="4S9zkLv07gz2U7jA2SLs-105" value="" style="shape=actor;whiteSpace=wrap;html=1;strokeColor=#666666;fontSize=12;fillColor=#f5f5f5;fontColor=#333333;" parent="1" vertex="1">
          <mxGeometry x="360" y="-600" width="20" height="30" as="geometry" />
        </mxCell>
        <mxCell id="4S9zkLv07gz2U7jA2SLs-106" value="" style="shape=actor;whiteSpace=wrap;html=1;strokeColor=#666666;fontSize=12;fillColor=#f5f5f5;fontColor=#333333;" parent="1" vertex="1">
          <mxGeometry x="390" y="-600" width="20" height="30" as="geometry" />
        </mxCell>
        <mxCell id="4S9zkLv07gz2U7jA2SLs-107" value="" style="shape=actor;whiteSpace=wrap;html=1;strokeColor=#666666;fontSize=12;fillColor=#f5f5f5;fontColor=#333333;" parent="1" vertex="1">
          <mxGeometry x="420" y="-600" width="20" height="30" as="geometry" />
        </mxCell>
        <mxCell id="4S9zkLv07gz2U7jA2SLs-108" value="" style="shape=actor;whiteSpace=wrap;html=1;strokeColor=#b85450;fontSize=12;fillColor=#f8cecc;" parent="1" vertex="1">
          <mxGeometry x="140" y="-560" width="20" height="30" as="geometry" />
        </mxCell>
        <mxCell id="4S9zkLv07gz2U7jA2SLs-109" value="" style="shape=actor;whiteSpace=wrap;html=1;strokeColor=#666666;fontSize=12;fillColor=#f5f5f5;fontColor=#333333;" parent="1" vertex="1">
          <mxGeometry x="180" y="-560" width="20" height="30" as="geometry" />
        </mxCell>
        <mxCell id="4S9zkLv07gz2U7jA2SLs-110" value="" style="shape=actor;whiteSpace=wrap;html=1;strokeColor=#666666;fontSize=12;fillColor=#f5f5f5;fontColor=#333333;" parent="1" vertex="1">
          <mxGeometry x="210" y="-560" width="20" height="30" as="geometry" />
        </mxCell>
        <mxCell id="4S9zkLv07gz2U7jA2SLs-111" value="" style="shape=actor;whiteSpace=wrap;html=1;strokeColor=#666666;fontSize=12;fillColor=#f5f5f5;fontColor=#333333;" parent="1" vertex="1">
          <mxGeometry x="240" y="-560" width="20" height="30" as="geometry" />
        </mxCell>
        <mxCell id="4S9zkLv07gz2U7jA2SLs-112" value="" style="shape=actor;whiteSpace=wrap;html=1;strokeColor=#666666;fontSize=12;fillColor=#f5f5f5;fontColor=#333333;" parent="1" vertex="1">
          <mxGeometry x="270" y="-560" width="20" height="30" as="geometry" />
        </mxCell>
        <mxCell id="4S9zkLv07gz2U7jA2SLs-113" value="" style="shape=actor;whiteSpace=wrap;html=1;strokeColor=#666666;fontSize=12;fillColor=#f5f5f5;fontColor=#333333;" parent="1" vertex="1">
          <mxGeometry x="300" y="-560" width="20" height="30" as="geometry" />
        </mxCell>
        <mxCell id="4S9zkLv07gz2U7jA2SLs-114" value="" style="shape=actor;whiteSpace=wrap;html=1;strokeColor=#666666;fontSize=12;fillColor=#f5f5f5;fontColor=#333333;" parent="1" vertex="1">
          <mxGeometry x="330" y="-560" width="20" height="30" as="geometry" />
        </mxCell>
        <mxCell id="4S9zkLv07gz2U7jA2SLs-115" value="" style="shape=actor;whiteSpace=wrap;html=1;strokeColor=#666666;fontSize=12;fillColor=#f5f5f5;fontColor=#333333;" parent="1" vertex="1">
          <mxGeometry x="360" y="-560" width="20" height="30" as="geometry" />
        </mxCell>
        <mxCell id="4S9zkLv07gz2U7jA2SLs-116" value="" style="shape=actor;whiteSpace=wrap;html=1;strokeColor=#666666;fontSize=12;fillColor=#f5f5f5;fontColor=#333333;" parent="1" vertex="1">
          <mxGeometry x="390" y="-560" width="20" height="30" as="geometry" />
        </mxCell>
        <mxCell id="4S9zkLv07gz2U7jA2SLs-117" value="" style="shape=actor;whiteSpace=wrap;html=1;strokeColor=#666666;fontSize=12;fillColor=#f5f5f5;fontColor=#333333;" parent="1" vertex="1">
          <mxGeometry x="420" y="-560" width="20" height="30" as="geometry" />
        </mxCell>
        <mxCell id="4S9zkLv07gz2U7jA2SLs-118" value="&lt;font style=&quot;font-size: 12px;&quot;&gt;\[\frac{\color{red}{(\#\,\textrm{with disease})} \cdot P(+|\textrm{disease}) }{(\#\,\textrm{ without disease}) \cdot P(+ | \textrm{without disease})}\]&lt;/font&gt;" style="text;html=1;strokeColor=none;fillColor=none;align=center;verticalAlign=middle;whiteSpace=wrap;rounded=0;fontSize=12;fontColor=#000000;" parent="1" vertex="1">
          <mxGeometry x="530" y="-1000" width="280" height="60" as="geometry" />
        </mxCell>
        <mxCell id="4S9zkLv07gz2U7jA2SLs-119" value="" style="shape=actor;whiteSpace=wrap;html=1;strokeColor=#b85450;fontSize=12;fillColor=#f8cecc;" parent="1" vertex="1">
          <mxGeometry x="520" y="-920" width="20" height="30" as="geometry" />
        </mxCell>
        <mxCell id="4S9zkLv07gz2U7jA2SLs-120" value="" style="shape=actor;whiteSpace=wrap;html=1;strokeColor=#666666;fontSize=12;fillColor=#f5f5f5;fontColor=#333333;" parent="1" vertex="1">
          <mxGeometry x="560" y="-920" width="20" height="30" as="geometry" />
        </mxCell>
        <mxCell id="4S9zkLv07gz2U7jA2SLs-121" value="" style="shape=actor;whiteSpace=wrap;html=1;strokeColor=#666666;fontSize=12;fillColor=#f5f5f5;fontColor=#333333;" parent="1" vertex="1">
          <mxGeometry x="590" y="-920" width="20" height="30" as="geometry" />
        </mxCell>
        <mxCell id="4S9zkLv07gz2U7jA2SLs-122" value="" style="shape=actor;whiteSpace=wrap;html=1;strokeColor=#666666;fontSize=12;fillColor=#f5f5f5;fontColor=#333333;" parent="1" vertex="1">
          <mxGeometry x="620" y="-920" width="20" height="30" as="geometry" />
        </mxCell>
        <mxCell id="4S9zkLv07gz2U7jA2SLs-123" value="" style="shape=actor;whiteSpace=wrap;html=1;strokeColor=#666666;fontSize=12;fillColor=#f5f5f5;fontColor=#333333;" parent="1" vertex="1">
          <mxGeometry x="650" y="-920" width="20" height="30" as="geometry" />
        </mxCell>
        <mxCell id="4S9zkLv07gz2U7jA2SLs-124" value="" style="shape=actor;whiteSpace=wrap;html=1;strokeColor=#666666;fontSize=12;fillColor=#f5f5f5;fontColor=#333333;" parent="1" vertex="1">
          <mxGeometry x="680" y="-920" width="20" height="30" as="geometry" />
        </mxCell>
        <mxCell id="4S9zkLv07gz2U7jA2SLs-125" value="" style="shape=actor;whiteSpace=wrap;html=1;strokeColor=#666666;fontSize=12;fillColor=#f5f5f5;fontColor=#333333;" parent="1" vertex="1">
          <mxGeometry x="710" y="-920" width="20" height="30" as="geometry" />
        </mxCell>
        <mxCell id="4S9zkLv07gz2U7jA2SLs-126" value="" style="shape=actor;whiteSpace=wrap;html=1;strokeColor=#666666;fontSize=12;fillColor=#f5f5f5;fontColor=#333333;" parent="1" vertex="1">
          <mxGeometry x="740" y="-920" width="20" height="30" as="geometry" />
        </mxCell>
        <mxCell id="4S9zkLv07gz2U7jA2SLs-127" value="" style="shape=actor;whiteSpace=wrap;html=1;strokeColor=#666666;fontSize=12;fillColor=#f5f5f5;fontColor=#333333;" parent="1" vertex="1">
          <mxGeometry x="770" y="-920" width="20" height="30" as="geometry" />
        </mxCell>
        <mxCell id="4S9zkLv07gz2U7jA2SLs-128" value="" style="shape=actor;whiteSpace=wrap;html=1;strokeColor=#666666;fontSize=12;fillColor=#f5f5f5;fontColor=#333333;" parent="1" vertex="1">
          <mxGeometry x="800" y="-920" width="20" height="30" as="geometry" />
        </mxCell>
        <mxCell id="4S9zkLv07gz2U7jA2SLs-129" value="" style="shape=actor;whiteSpace=wrap;html=1;strokeColor=#b85450;fontSize=12;fillColor=#f8cecc;" parent="1" vertex="1">
          <mxGeometry x="520" y="-880" width="20" height="30" as="geometry" />
        </mxCell>
        <mxCell id="4S9zkLv07gz2U7jA2SLs-130" value="" style="shape=actor;whiteSpace=wrap;html=1;strokeColor=#666666;fontSize=12;fillColor=#f5f5f5;fontColor=#333333;opacity=50;" parent="1" vertex="1">
          <mxGeometry x="560" y="-880" width="20" height="30" as="geometry" />
        </mxCell>
        <mxCell id="4S9zkLv07gz2U7jA2SLs-131" value="" style="shape=actor;whiteSpace=wrap;html=1;strokeColor=#666666;fontSize=12;fillColor=#f5f5f5;fontColor=#333333;opacity=50;" parent="1" vertex="1">
          <mxGeometry x="590" y="-880" width="20" height="30" as="geometry" />
        </mxCell>
        <mxCell id="4S9zkLv07gz2U7jA2SLs-132" value="" style="shape=actor;whiteSpace=wrap;html=1;strokeColor=#666666;fontSize=12;fillColor=#f5f5f5;fontColor=#333333;opacity=50;" parent="1" vertex="1">
          <mxGeometry x="620" y="-880" width="20" height="30" as="geometry" />
        </mxCell>
        <mxCell id="4S9zkLv07gz2U7jA2SLs-133" value="" style="shape=actor;whiteSpace=wrap;html=1;strokeColor=#666666;fontSize=12;fillColor=#f5f5f5;fontColor=#333333;opacity=50;" parent="1" vertex="1">
          <mxGeometry x="650" y="-880" width="20" height="30" as="geometry" />
        </mxCell>
        <mxCell id="4S9zkLv07gz2U7jA2SLs-134" value="" style="shape=actor;whiteSpace=wrap;html=1;strokeColor=#666666;fontSize=12;fillColor=#f5f5f5;fontColor=#333333;opacity=50;" parent="1" vertex="1">
          <mxGeometry x="680" y="-880" width="20" height="30" as="geometry" />
        </mxCell>
        <mxCell id="4S9zkLv07gz2U7jA2SLs-135" value="" style="shape=actor;whiteSpace=wrap;html=1;strokeColor=#666666;fontSize=12;fillColor=#f5f5f5;fontColor=#333333;opacity=50;" parent="1" vertex="1">
          <mxGeometry x="710" y="-880" width="20" height="30" as="geometry" />
        </mxCell>
        <mxCell id="4S9zkLv07gz2U7jA2SLs-136" value="" style="shape=actor;whiteSpace=wrap;html=1;strokeColor=#666666;fontSize=12;fillColor=#f5f5f5;fontColor=#333333;opacity=50;" parent="1" vertex="1">
          <mxGeometry x="740" y="-880" width="20" height="30" as="geometry" />
        </mxCell>
        <mxCell id="4S9zkLv07gz2U7jA2SLs-137" value="" style="shape=actor;whiteSpace=wrap;html=1;strokeColor=#666666;fontSize=12;fillColor=#f5f5f5;fontColor=#333333;opacity=50;" parent="1" vertex="1">
          <mxGeometry x="770" y="-880" width="20" height="30" as="geometry" />
        </mxCell>
        <mxCell id="4S9zkLv07gz2U7jA2SLs-138" value="" style="shape=actor;whiteSpace=wrap;html=1;strokeColor=#666666;fontSize=12;fillColor=#f5f5f5;fontColor=#333333;opacity=50;" parent="1" vertex="1">
          <mxGeometry x="800" y="-880" width="20" height="30" as="geometry" />
        </mxCell>
        <mxCell id="4S9zkLv07gz2U7jA2SLs-139" value="" style="shape=actor;whiteSpace=wrap;html=1;strokeColor=#b85450;fontSize=12;fillColor=#f8cecc;" parent="1" vertex="1">
          <mxGeometry x="520" y="-840" width="20" height="30" as="geometry" />
        </mxCell>
        <mxCell id="4S9zkLv07gz2U7jA2SLs-140" value="" style="shape=actor;whiteSpace=wrap;html=1;strokeColor=#666666;fontSize=12;fillColor=#f5f5f5;fontColor=#333333;opacity=50;" parent="1" vertex="1">
          <mxGeometry x="560" y="-840" width="20" height="30" as="geometry" />
        </mxCell>
        <mxCell id="4S9zkLv07gz2U7jA2SLs-141" value="" style="shape=actor;whiteSpace=wrap;html=1;strokeColor=#666666;fontSize=12;fillColor=#f5f5f5;fontColor=#333333;opacity=50;" parent="1" vertex="1">
          <mxGeometry x="590" y="-840" width="20" height="30" as="geometry" />
        </mxCell>
        <mxCell id="4S9zkLv07gz2U7jA2SLs-142" value="" style="shape=actor;whiteSpace=wrap;html=1;strokeColor=#666666;fontSize=12;fillColor=#f5f5f5;fontColor=#333333;opacity=50;" parent="1" vertex="1">
          <mxGeometry x="620" y="-840" width="20" height="30" as="geometry" />
        </mxCell>
        <mxCell id="4S9zkLv07gz2U7jA2SLs-143" value="" style="shape=actor;whiteSpace=wrap;html=1;strokeColor=#666666;fontSize=12;fillColor=#f5f5f5;fontColor=#333333;opacity=50;" parent="1" vertex="1">
          <mxGeometry x="650" y="-840" width="20" height="30" as="geometry" />
        </mxCell>
        <mxCell id="4S9zkLv07gz2U7jA2SLs-144" value="" style="shape=actor;whiteSpace=wrap;html=1;strokeColor=#666666;fontSize=12;fillColor=#f5f5f5;fontColor=#333333;opacity=50;" parent="1" vertex="1">
          <mxGeometry x="680" y="-840" width="20" height="30" as="geometry" />
        </mxCell>
        <mxCell id="4S9zkLv07gz2U7jA2SLs-145" value="" style="shape=actor;whiteSpace=wrap;html=1;strokeColor=#666666;fontSize=12;fillColor=#f5f5f5;fontColor=#333333;opacity=50;" parent="1" vertex="1">
          <mxGeometry x="710" y="-840" width="20" height="30" as="geometry" />
        </mxCell>
        <mxCell id="4S9zkLv07gz2U7jA2SLs-146" value="" style="shape=actor;whiteSpace=wrap;html=1;strokeColor=#666666;fontSize=12;fillColor=#f5f5f5;fontColor=#333333;opacity=50;" parent="1" vertex="1">
          <mxGeometry x="740" y="-840" width="20" height="30" as="geometry" />
        </mxCell>
        <mxCell id="4S9zkLv07gz2U7jA2SLs-147" value="" style="shape=actor;whiteSpace=wrap;html=1;strokeColor=#666666;fontSize=12;fillColor=#f5f5f5;fontColor=#333333;opacity=50;" parent="1" vertex="1">
          <mxGeometry x="770" y="-840" width="20" height="30" as="geometry" />
        </mxCell>
        <mxCell id="4S9zkLv07gz2U7jA2SLs-148" value="" style="shape=actor;whiteSpace=wrap;html=1;strokeColor=#666666;fontSize=12;fillColor=#f5f5f5;fontColor=#333333;opacity=50;" parent="1" vertex="1">
          <mxGeometry x="800" y="-840" width="20" height="30" as="geometry" />
        </mxCell>
        <mxCell id="4S9zkLv07gz2U7jA2SLs-149" value="" style="shape=actor;whiteSpace=wrap;html=1;strokeColor=#b85450;fontSize=12;fillColor=#f8cecc;" parent="1" vertex="1">
          <mxGeometry x="520" y="-800" width="20" height="30" as="geometry" />
        </mxCell>
        <mxCell id="4S9zkLv07gz2U7jA2SLs-150" value="" style="shape=actor;whiteSpace=wrap;html=1;strokeColor=#666666;fontSize=12;fillColor=#f5f5f5;fontColor=#333333;opacity=50;" parent="1" vertex="1">
          <mxGeometry x="560" y="-800" width="20" height="30" as="geometry" />
        </mxCell>
        <mxCell id="4S9zkLv07gz2U7jA2SLs-151" value="" style="shape=actor;whiteSpace=wrap;html=1;strokeColor=#666666;fontSize=12;fillColor=#f5f5f5;fontColor=#333333;opacity=50;" parent="1" vertex="1">
          <mxGeometry x="590" y="-800" width="20" height="30" as="geometry" />
        </mxCell>
        <mxCell id="4S9zkLv07gz2U7jA2SLs-152" value="" style="shape=actor;whiteSpace=wrap;html=1;strokeColor=#666666;fontSize=12;fillColor=#f5f5f5;fontColor=#333333;opacity=50;" parent="1" vertex="1">
          <mxGeometry x="620" y="-800" width="20" height="30" as="geometry" />
        </mxCell>
        <mxCell id="4S9zkLv07gz2U7jA2SLs-153" value="" style="shape=actor;whiteSpace=wrap;html=1;strokeColor=#666666;fontSize=12;fillColor=#f5f5f5;fontColor=#333333;opacity=50;" parent="1" vertex="1">
          <mxGeometry x="650" y="-800" width="20" height="30" as="geometry" />
        </mxCell>
        <mxCell id="4S9zkLv07gz2U7jA2SLs-154" value="" style="shape=actor;whiteSpace=wrap;html=1;strokeColor=#666666;fontSize=12;fillColor=#f5f5f5;fontColor=#333333;opacity=50;" parent="1" vertex="1">
          <mxGeometry x="680" y="-800" width="20" height="30" as="geometry" />
        </mxCell>
        <mxCell id="4S9zkLv07gz2U7jA2SLs-155" value="" style="shape=actor;whiteSpace=wrap;html=1;strokeColor=#666666;fontSize=12;fillColor=#f5f5f5;fontColor=#333333;opacity=50;" parent="1" vertex="1">
          <mxGeometry x="710" y="-800" width="20" height="30" as="geometry" />
        </mxCell>
        <mxCell id="4S9zkLv07gz2U7jA2SLs-156" value="" style="shape=actor;whiteSpace=wrap;html=1;strokeColor=#666666;fontSize=12;fillColor=#f5f5f5;fontColor=#333333;opacity=50;" parent="1" vertex="1">
          <mxGeometry x="740" y="-800" width="20" height="30" as="geometry" />
        </mxCell>
        <mxCell id="4S9zkLv07gz2U7jA2SLs-157" value="" style="shape=actor;whiteSpace=wrap;html=1;strokeColor=#666666;fontSize=12;fillColor=#f5f5f5;fontColor=#333333;opacity=50;" parent="1" vertex="1">
          <mxGeometry x="770" y="-800" width="20" height="30" as="geometry" />
        </mxCell>
        <mxCell id="4S9zkLv07gz2U7jA2SLs-158" value="" style="shape=actor;whiteSpace=wrap;html=1;strokeColor=#666666;fontSize=12;fillColor=#f5f5f5;fontColor=#333333;opacity=50;" parent="1" vertex="1">
          <mxGeometry x="800" y="-800" width="20" height="30" as="geometry" />
        </mxCell>
        <mxCell id="4S9zkLv07gz2U7jA2SLs-159" value="" style="shape=actor;whiteSpace=wrap;html=1;strokeColor=#b85450;fontSize=12;fillColor=#f8cecc;" parent="1" vertex="1">
          <mxGeometry x="520" y="-760" width="20" height="30" as="geometry" />
        </mxCell>
        <mxCell id="4S9zkLv07gz2U7jA2SLs-160" value="" style="shape=actor;whiteSpace=wrap;html=1;strokeColor=#666666;fontSize=12;fillColor=#f5f5f5;fontColor=#333333;opacity=50;" parent="1" vertex="1">
          <mxGeometry x="560" y="-760" width="20" height="30" as="geometry" />
        </mxCell>
        <mxCell id="4S9zkLv07gz2U7jA2SLs-161" value="" style="shape=actor;whiteSpace=wrap;html=1;strokeColor=#666666;fontSize=12;fillColor=#f5f5f5;fontColor=#333333;opacity=50;" parent="1" vertex="1">
          <mxGeometry x="590" y="-760" width="20" height="30" as="geometry" />
        </mxCell>
        <mxCell id="4S9zkLv07gz2U7jA2SLs-162" value="" style="shape=actor;whiteSpace=wrap;html=1;strokeColor=#666666;fontSize=12;fillColor=#f5f5f5;fontColor=#333333;opacity=50;" parent="1" vertex="1">
          <mxGeometry x="620" y="-760" width="20" height="30" as="geometry" />
        </mxCell>
        <mxCell id="4S9zkLv07gz2U7jA2SLs-163" value="" style="shape=actor;whiteSpace=wrap;html=1;strokeColor=#666666;fontSize=12;fillColor=#f5f5f5;fontColor=#333333;opacity=50;" parent="1" vertex="1">
          <mxGeometry x="650" y="-760" width="20" height="30" as="geometry" />
        </mxCell>
        <mxCell id="4S9zkLv07gz2U7jA2SLs-164" value="" style="shape=actor;whiteSpace=wrap;html=1;strokeColor=#666666;fontSize=12;fillColor=#f5f5f5;fontColor=#333333;opacity=50;" parent="1" vertex="1">
          <mxGeometry x="680" y="-760" width="20" height="30" as="geometry" />
        </mxCell>
        <mxCell id="4S9zkLv07gz2U7jA2SLs-165" value="" style="shape=actor;whiteSpace=wrap;html=1;strokeColor=#666666;fontSize=12;fillColor=#f5f5f5;fontColor=#333333;opacity=50;" parent="1" vertex="1">
          <mxGeometry x="710" y="-760" width="20" height="30" as="geometry" />
        </mxCell>
        <mxCell id="4S9zkLv07gz2U7jA2SLs-166" value="" style="shape=actor;whiteSpace=wrap;html=1;strokeColor=#666666;fontSize=12;fillColor=#f5f5f5;fontColor=#333333;opacity=50;" parent="1" vertex="1">
          <mxGeometry x="740" y="-760" width="20" height="30" as="geometry" />
        </mxCell>
        <mxCell id="4S9zkLv07gz2U7jA2SLs-167" value="" style="shape=actor;whiteSpace=wrap;html=1;strokeColor=#666666;fontSize=12;fillColor=#f5f5f5;fontColor=#333333;opacity=50;" parent="1" vertex="1">
          <mxGeometry x="770" y="-760" width="20" height="30" as="geometry" />
        </mxCell>
        <mxCell id="4S9zkLv07gz2U7jA2SLs-168" value="" style="shape=actor;whiteSpace=wrap;html=1;strokeColor=#666666;fontSize=12;fillColor=#f5f5f5;fontColor=#333333;opacity=50;" parent="1" vertex="1">
          <mxGeometry x="800" y="-760" width="20" height="30" as="geometry" />
        </mxCell>
        <mxCell id="4S9zkLv07gz2U7jA2SLs-169" value="" style="shape=actor;whiteSpace=wrap;html=1;strokeColor=#b85450;fontSize=12;fillColor=#f8cecc;" parent="1" vertex="1">
          <mxGeometry x="520" y="-720" width="20" height="30" as="geometry" />
        </mxCell>
        <mxCell id="4S9zkLv07gz2U7jA2SLs-170" value="" style="shape=actor;whiteSpace=wrap;html=1;strokeColor=#666666;fontSize=12;fillColor=#f5f5f5;fontColor=#333333;opacity=50;" parent="1" vertex="1">
          <mxGeometry x="560" y="-720" width="20" height="30" as="geometry" />
        </mxCell>
        <mxCell id="4S9zkLv07gz2U7jA2SLs-171" value="" style="shape=actor;whiteSpace=wrap;html=1;strokeColor=#666666;fontSize=12;fillColor=#f5f5f5;fontColor=#333333;opacity=50;" parent="1" vertex="1">
          <mxGeometry x="590" y="-720" width="20" height="30" as="geometry" />
        </mxCell>
        <mxCell id="4S9zkLv07gz2U7jA2SLs-172" value="" style="shape=actor;whiteSpace=wrap;html=1;strokeColor=#666666;fontSize=12;fillColor=#f5f5f5;fontColor=#333333;opacity=50;" parent="1" vertex="1">
          <mxGeometry x="620" y="-720" width="20" height="30" as="geometry" />
        </mxCell>
        <mxCell id="4S9zkLv07gz2U7jA2SLs-173" value="" style="shape=actor;whiteSpace=wrap;html=1;strokeColor=#666666;fontSize=12;fillColor=#f5f5f5;fontColor=#333333;opacity=50;" parent="1" vertex="1">
          <mxGeometry x="650" y="-720" width="20" height="30" as="geometry" />
        </mxCell>
        <mxCell id="4S9zkLv07gz2U7jA2SLs-174" value="" style="shape=actor;whiteSpace=wrap;html=1;strokeColor=#666666;fontSize=12;fillColor=#f5f5f5;fontColor=#333333;opacity=50;" parent="1" vertex="1">
          <mxGeometry x="680" y="-720" width="20" height="30" as="geometry" />
        </mxCell>
        <mxCell id="4S9zkLv07gz2U7jA2SLs-175" value="" style="shape=actor;whiteSpace=wrap;html=1;strokeColor=#666666;fontSize=12;fillColor=#f5f5f5;fontColor=#333333;opacity=50;" parent="1" vertex="1">
          <mxGeometry x="710" y="-720" width="20" height="30" as="geometry" />
        </mxCell>
        <mxCell id="4S9zkLv07gz2U7jA2SLs-176" value="" style="shape=actor;whiteSpace=wrap;html=1;strokeColor=#666666;fontSize=12;fillColor=#f5f5f5;fontColor=#333333;opacity=50;" parent="1" vertex="1">
          <mxGeometry x="740" y="-720" width="20" height="30" as="geometry" />
        </mxCell>
        <mxCell id="4S9zkLv07gz2U7jA2SLs-177" value="" style="shape=actor;whiteSpace=wrap;html=1;strokeColor=#666666;fontSize=12;fillColor=#f5f5f5;fontColor=#333333;opacity=50;" parent="1" vertex="1">
          <mxGeometry x="770" y="-720" width="20" height="30" as="geometry" />
        </mxCell>
        <mxCell id="4S9zkLv07gz2U7jA2SLs-178" value="" style="shape=actor;whiteSpace=wrap;html=1;strokeColor=#666666;fontSize=12;fillColor=#f5f5f5;fontColor=#333333;opacity=50;" parent="1" vertex="1">
          <mxGeometry x="800" y="-720" width="20" height="30" as="geometry" />
        </mxCell>
        <mxCell id="4S9zkLv07gz2U7jA2SLs-179" value="" style="shape=actor;whiteSpace=wrap;html=1;strokeColor=#b85450;fontSize=12;fillColor=#f8cecc;" parent="1" vertex="1">
          <mxGeometry x="520" y="-680" width="20" height="30" as="geometry" />
        </mxCell>
        <mxCell id="4S9zkLv07gz2U7jA2SLs-180" value="" style="shape=actor;whiteSpace=wrap;html=1;strokeColor=#666666;fontSize=12;fillColor=#f5f5f5;fontColor=#333333;opacity=50;" parent="1" vertex="1">
          <mxGeometry x="560" y="-680" width="20" height="30" as="geometry" />
        </mxCell>
        <mxCell id="4S9zkLv07gz2U7jA2SLs-181" value="" style="shape=actor;whiteSpace=wrap;html=1;strokeColor=#666666;fontSize=12;fillColor=#f5f5f5;fontColor=#333333;opacity=50;" parent="1" vertex="1">
          <mxGeometry x="590" y="-680" width="20" height="30" as="geometry" />
        </mxCell>
        <mxCell id="4S9zkLv07gz2U7jA2SLs-182" value="" style="shape=actor;whiteSpace=wrap;html=1;strokeColor=#666666;fontSize=12;fillColor=#f5f5f5;fontColor=#333333;opacity=50;" parent="1" vertex="1">
          <mxGeometry x="620" y="-680" width="20" height="30" as="geometry" />
        </mxCell>
        <mxCell id="4S9zkLv07gz2U7jA2SLs-183" value="" style="shape=actor;whiteSpace=wrap;html=1;strokeColor=#666666;fontSize=12;fillColor=#f5f5f5;fontColor=#333333;opacity=50;" parent="1" vertex="1">
          <mxGeometry x="650" y="-680" width="20" height="30" as="geometry" />
        </mxCell>
        <mxCell id="4S9zkLv07gz2U7jA2SLs-184" value="" style="shape=actor;whiteSpace=wrap;html=1;strokeColor=#666666;fontSize=12;fillColor=#f5f5f5;fontColor=#333333;opacity=50;" parent="1" vertex="1">
          <mxGeometry x="680" y="-680" width="20" height="30" as="geometry" />
        </mxCell>
        <mxCell id="4S9zkLv07gz2U7jA2SLs-185" value="" style="shape=actor;whiteSpace=wrap;html=1;strokeColor=#666666;fontSize=12;fillColor=#f5f5f5;fontColor=#333333;opacity=50;" parent="1" vertex="1">
          <mxGeometry x="710" y="-680" width="20" height="30" as="geometry" />
        </mxCell>
        <mxCell id="4S9zkLv07gz2U7jA2SLs-186" value="" style="shape=actor;whiteSpace=wrap;html=1;strokeColor=#666666;fontSize=12;fillColor=#f5f5f5;fontColor=#333333;opacity=50;" parent="1" vertex="1">
          <mxGeometry x="740" y="-680" width="20" height="30" as="geometry" />
        </mxCell>
        <mxCell id="4S9zkLv07gz2U7jA2SLs-187" value="" style="shape=actor;whiteSpace=wrap;html=1;strokeColor=#666666;fontSize=12;fillColor=#f5f5f5;fontColor=#333333;opacity=50;" parent="1" vertex="1">
          <mxGeometry x="770" y="-680" width="20" height="30" as="geometry" />
        </mxCell>
        <mxCell id="4S9zkLv07gz2U7jA2SLs-188" value="" style="shape=actor;whiteSpace=wrap;html=1;strokeColor=#666666;fontSize=12;fillColor=#f5f5f5;fontColor=#333333;opacity=50;" parent="1" vertex="1">
          <mxGeometry x="800" y="-680" width="20" height="30" as="geometry" />
        </mxCell>
        <mxCell id="4S9zkLv07gz2U7jA2SLs-189" value="" style="shape=actor;whiteSpace=wrap;html=1;strokeColor=#b85450;fontSize=12;fillColor=#f8cecc;" parent="1" vertex="1">
          <mxGeometry x="520" y="-640" width="20" height="30" as="geometry" />
        </mxCell>
        <mxCell id="4S9zkLv07gz2U7jA2SLs-190" value="" style="shape=actor;whiteSpace=wrap;html=1;strokeColor=#666666;fontSize=12;fillColor=#f5f5f5;fontColor=#333333;opacity=50;" parent="1" vertex="1">
          <mxGeometry x="560" y="-640" width="20" height="30" as="geometry" />
        </mxCell>
        <mxCell id="4S9zkLv07gz2U7jA2SLs-191" value="" style="shape=actor;whiteSpace=wrap;html=1;strokeColor=#666666;fontSize=12;fillColor=#f5f5f5;fontColor=#333333;opacity=50;" parent="1" vertex="1">
          <mxGeometry x="590" y="-640" width="20" height="30" as="geometry" />
        </mxCell>
        <mxCell id="4S9zkLv07gz2U7jA2SLs-192" value="" style="shape=actor;whiteSpace=wrap;html=1;strokeColor=#666666;fontSize=12;fillColor=#f5f5f5;fontColor=#333333;opacity=50;" parent="1" vertex="1">
          <mxGeometry x="620" y="-640" width="20" height="30" as="geometry" />
        </mxCell>
        <mxCell id="4S9zkLv07gz2U7jA2SLs-193" value="" style="shape=actor;whiteSpace=wrap;html=1;strokeColor=#666666;fontSize=12;fillColor=#f5f5f5;fontColor=#333333;opacity=50;" parent="1" vertex="1">
          <mxGeometry x="650" y="-640" width="20" height="30" as="geometry" />
        </mxCell>
        <mxCell id="4S9zkLv07gz2U7jA2SLs-194" value="" style="shape=actor;whiteSpace=wrap;html=1;strokeColor=#666666;fontSize=12;fillColor=#f5f5f5;fontColor=#333333;opacity=50;" parent="1" vertex="1">
          <mxGeometry x="680" y="-640" width="20" height="30" as="geometry" />
        </mxCell>
        <mxCell id="4S9zkLv07gz2U7jA2SLs-195" value="" style="shape=actor;whiteSpace=wrap;html=1;strokeColor=#666666;fontSize=12;fillColor=#f5f5f5;fontColor=#333333;opacity=50;" parent="1" vertex="1">
          <mxGeometry x="710" y="-640" width="20" height="30" as="geometry" />
        </mxCell>
        <mxCell id="4S9zkLv07gz2U7jA2SLs-196" value="" style="shape=actor;whiteSpace=wrap;html=1;strokeColor=#666666;fontSize=12;fillColor=#f5f5f5;fontColor=#333333;opacity=50;" parent="1" vertex="1">
          <mxGeometry x="740" y="-640" width="20" height="30" as="geometry" />
        </mxCell>
        <mxCell id="4S9zkLv07gz2U7jA2SLs-197" value="" style="shape=actor;whiteSpace=wrap;html=1;strokeColor=#666666;fontSize=12;fillColor=#f5f5f5;fontColor=#333333;opacity=50;" parent="1" vertex="1">
          <mxGeometry x="770" y="-640" width="20" height="30" as="geometry" />
        </mxCell>
        <mxCell id="4S9zkLv07gz2U7jA2SLs-198" value="" style="shape=actor;whiteSpace=wrap;html=1;strokeColor=#666666;fontSize=12;fillColor=#f5f5f5;fontColor=#333333;opacity=50;" parent="1" vertex="1">
          <mxGeometry x="800" y="-640" width="20" height="30" as="geometry" />
        </mxCell>
        <mxCell id="4S9zkLv07gz2U7jA2SLs-199" value="" style="shape=actor;whiteSpace=wrap;html=1;strokeColor=#b85450;fontSize=12;fillColor=#f8cecc;" parent="1" vertex="1">
          <mxGeometry x="520" y="-600" width="20" height="30" as="geometry" />
        </mxCell>
        <mxCell id="4S9zkLv07gz2U7jA2SLs-200" value="" style="shape=actor;whiteSpace=wrap;html=1;strokeColor=#666666;fontSize=12;fillColor=#f5f5f5;fontColor=#333333;opacity=50;" parent="1" vertex="1">
          <mxGeometry x="560" y="-600" width="20" height="30" as="geometry" />
        </mxCell>
        <mxCell id="4S9zkLv07gz2U7jA2SLs-201" value="" style="shape=actor;whiteSpace=wrap;html=1;strokeColor=#666666;fontSize=12;fillColor=#f5f5f5;fontColor=#333333;opacity=50;" parent="1" vertex="1">
          <mxGeometry x="590" y="-600" width="20" height="30" as="geometry" />
        </mxCell>
        <mxCell id="4S9zkLv07gz2U7jA2SLs-202" value="" style="shape=actor;whiteSpace=wrap;html=1;strokeColor=#666666;fontSize=12;fillColor=#f5f5f5;fontColor=#333333;opacity=50;" parent="1" vertex="1">
          <mxGeometry x="620" y="-600" width="20" height="30" as="geometry" />
        </mxCell>
        <mxCell id="4S9zkLv07gz2U7jA2SLs-203" value="" style="shape=actor;whiteSpace=wrap;html=1;strokeColor=#666666;fontSize=12;fillColor=#f5f5f5;fontColor=#333333;opacity=50;" parent="1" vertex="1">
          <mxGeometry x="650" y="-600" width="20" height="30" as="geometry" />
        </mxCell>
        <mxCell id="4S9zkLv07gz2U7jA2SLs-204" value="" style="shape=actor;whiteSpace=wrap;html=1;strokeColor=#666666;fontSize=12;fillColor=#f5f5f5;fontColor=#333333;opacity=50;" parent="1" vertex="1">
          <mxGeometry x="680" y="-600" width="20" height="30" as="geometry" />
        </mxCell>
        <mxCell id="4S9zkLv07gz2U7jA2SLs-205" value="" style="shape=actor;whiteSpace=wrap;html=1;strokeColor=#666666;fontSize=12;fillColor=#f5f5f5;fontColor=#333333;opacity=50;" parent="1" vertex="1">
          <mxGeometry x="710" y="-600" width="20" height="30" as="geometry" />
        </mxCell>
        <mxCell id="4S9zkLv07gz2U7jA2SLs-206" value="" style="shape=actor;whiteSpace=wrap;html=1;strokeColor=#666666;fontSize=12;fillColor=#f5f5f5;fontColor=#333333;opacity=50;" parent="1" vertex="1">
          <mxGeometry x="740" y="-600" width="20" height="30" as="geometry" />
        </mxCell>
        <mxCell id="4S9zkLv07gz2U7jA2SLs-207" value="" style="shape=actor;whiteSpace=wrap;html=1;strokeColor=#666666;fontSize=12;fillColor=#f5f5f5;fontColor=#333333;opacity=50;" parent="1" vertex="1">
          <mxGeometry x="770" y="-600" width="20" height="30" as="geometry" />
        </mxCell>
        <mxCell id="4S9zkLv07gz2U7jA2SLs-208" value="" style="shape=actor;whiteSpace=wrap;html=1;strokeColor=#666666;fontSize=12;fillColor=#f5f5f5;fontColor=#333333;opacity=50;" parent="1" vertex="1">
          <mxGeometry x="800" y="-600" width="20" height="30" as="geometry" />
        </mxCell>
        <mxCell id="4S9zkLv07gz2U7jA2SLs-209" value="" style="shape=actor;whiteSpace=wrap;html=1;strokeColor=#b85450;fontSize=12;fillColor=#f8cecc;opacity=50;" parent="1" vertex="1">
          <mxGeometry x="520" y="-560" width="20" height="30" as="geometry" />
        </mxCell>
        <mxCell id="4S9zkLv07gz2U7jA2SLs-210" value="" style="shape=actor;whiteSpace=wrap;html=1;strokeColor=#666666;fontSize=12;fillColor=#f5f5f5;fontColor=#333333;opacity=50;" parent="1" vertex="1">
          <mxGeometry x="560" y="-560" width="20" height="30" as="geometry" />
        </mxCell>
        <mxCell id="4S9zkLv07gz2U7jA2SLs-211" value="" style="shape=actor;whiteSpace=wrap;html=1;strokeColor=#666666;fontSize=12;fillColor=#f5f5f5;fontColor=#333333;opacity=50;" parent="1" vertex="1">
          <mxGeometry x="590" y="-560" width="20" height="30" as="geometry" />
        </mxCell>
        <mxCell id="4S9zkLv07gz2U7jA2SLs-212" value="" style="shape=actor;whiteSpace=wrap;html=1;strokeColor=#666666;fontSize=12;fillColor=#f5f5f5;fontColor=#333333;opacity=50;" parent="1" vertex="1">
          <mxGeometry x="620" y="-560" width="20" height="30" as="geometry" />
        </mxCell>
        <mxCell id="4S9zkLv07gz2U7jA2SLs-213" value="" style="shape=actor;whiteSpace=wrap;html=1;strokeColor=#666666;fontSize=12;fillColor=#f5f5f5;fontColor=#333333;opacity=50;" parent="1" vertex="1">
          <mxGeometry x="650" y="-560" width="20" height="30" as="geometry" />
        </mxCell>
        <mxCell id="4S9zkLv07gz2U7jA2SLs-214" value="" style="shape=actor;whiteSpace=wrap;html=1;strokeColor=#666666;fontSize=12;fillColor=#f5f5f5;fontColor=#333333;opacity=50;" parent="1" vertex="1">
          <mxGeometry x="680" y="-560" width="20" height="30" as="geometry" />
        </mxCell>
        <mxCell id="4S9zkLv07gz2U7jA2SLs-215" value="" style="shape=actor;whiteSpace=wrap;html=1;strokeColor=#666666;fontSize=12;fillColor=#f5f5f5;fontColor=#333333;opacity=50;" parent="1" vertex="1">
          <mxGeometry x="710" y="-560" width="20" height="30" as="geometry" />
        </mxCell>
        <mxCell id="4S9zkLv07gz2U7jA2SLs-216" value="" style="shape=actor;whiteSpace=wrap;html=1;strokeColor=#666666;fontSize=12;fillColor=#f5f5f5;fontColor=#333333;opacity=50;" parent="1" vertex="1">
          <mxGeometry x="740" y="-560" width="20" height="30" as="geometry" />
        </mxCell>
        <mxCell id="4S9zkLv07gz2U7jA2SLs-217" value="" style="shape=actor;whiteSpace=wrap;html=1;strokeColor=#666666;fontSize=12;fillColor=#f5f5f5;fontColor=#333333;opacity=50;" parent="1" vertex="1">
          <mxGeometry x="770" y="-560" width="20" height="30" as="geometry" />
        </mxCell>
        <mxCell id="4S9zkLv07gz2U7jA2SLs-218" value="" style="shape=actor;whiteSpace=wrap;html=1;strokeColor=#666666;fontSize=12;fillColor=#f5f5f5;fontColor=#333333;opacity=50;" parent="1" vertex="1">
          <mxGeometry x="800" y="-560" width="20" height="30" as="geometry" />
        </mxCell>
        <mxCell id="4S9zkLv07gz2U7jA2SLs-219" value="&lt;font style=&quot;font-size: 14px;&quot; color=&quot;#000000&quot;&gt;&lt;b&gt;+&lt;/b&gt;&lt;/font&gt;" style="text;html=1;strokeColor=none;fillColor=none;align=center;verticalAlign=middle;whiteSpace=wrap;rounded=0;fontSize=12;fontColor=#FFCCCC;" parent="1" vertex="1">
          <mxGeometry x="530" y="-930" width="20" height="20" as="geometry" />
        </mxCell>
        <mxCell id="4S9zkLv07gz2U7jA2SLs-220" value="&lt;font style=&quot;font-size: 14px;&quot; color=&quot;#000000&quot;&gt;&lt;b&gt;+&lt;/b&gt;&lt;/font&gt;" style="text;html=1;strokeColor=none;fillColor=none;align=center;verticalAlign=middle;whiteSpace=wrap;rounded=0;fontSize=12;fontColor=#FFCCCC;" parent="1" vertex="1">
          <mxGeometry x="530" y="-890" width="20" height="20" as="geometry" />
        </mxCell>
        <mxCell id="4S9zkLv07gz2U7jA2SLs-221" value="&lt;font style=&quot;font-size: 14px;&quot; color=&quot;#000000&quot;&gt;&lt;b&gt;+&lt;/b&gt;&lt;/font&gt;" style="text;html=1;strokeColor=none;fillColor=none;align=center;verticalAlign=middle;whiteSpace=wrap;rounded=0;fontSize=12;fontColor=#FFCCCC;" parent="1" vertex="1">
          <mxGeometry x="530" y="-850" width="20" height="20" as="geometry" />
        </mxCell>
        <mxCell id="4S9zkLv07gz2U7jA2SLs-222" value="&lt;font style=&quot;font-size: 14px;&quot; color=&quot;#000000&quot;&gt;&lt;b&gt;+&lt;/b&gt;&lt;/font&gt;" style="text;html=1;strokeColor=none;fillColor=none;align=center;verticalAlign=middle;whiteSpace=wrap;rounded=0;fontSize=12;fontColor=#FFCCCC;" parent="1" vertex="1">
          <mxGeometry x="530" y="-810" width="20" height="20" as="geometry" />
        </mxCell>
        <mxCell id="4S9zkLv07gz2U7jA2SLs-223" value="&lt;font style=&quot;font-size: 14px;&quot; color=&quot;#000000&quot;&gt;&lt;b&gt;+&lt;/b&gt;&lt;/font&gt;" style="text;html=1;strokeColor=none;fillColor=none;align=center;verticalAlign=middle;whiteSpace=wrap;rounded=0;fontSize=12;fontColor=#FFCCCC;" parent="1" vertex="1">
          <mxGeometry x="530" y="-770" width="20" height="20" as="geometry" />
        </mxCell>
        <mxCell id="4S9zkLv07gz2U7jA2SLs-224" value="&lt;font style=&quot;font-size: 14px;&quot; color=&quot;#000000&quot;&gt;&lt;b&gt;+&lt;/b&gt;&lt;/font&gt;" style="text;html=1;strokeColor=none;fillColor=none;align=center;verticalAlign=middle;whiteSpace=wrap;rounded=0;fontSize=12;fontColor=#FFCCCC;" parent="1" vertex="1">
          <mxGeometry x="530" y="-730" width="20" height="20" as="geometry" />
        </mxCell>
        <mxCell id="4S9zkLv07gz2U7jA2SLs-225" value="&lt;font style=&quot;font-size: 14px;&quot; color=&quot;#000000&quot;&gt;&lt;b&gt;+&lt;/b&gt;&lt;/font&gt;" style="text;html=1;strokeColor=none;fillColor=none;align=center;verticalAlign=middle;whiteSpace=wrap;rounded=0;fontSize=12;fontColor=#FFCCCC;" parent="1" vertex="1">
          <mxGeometry x="530" y="-690" width="20" height="20" as="geometry" />
        </mxCell>
        <mxCell id="4S9zkLv07gz2U7jA2SLs-226" value="&lt;font style=&quot;font-size: 14px;&quot; color=&quot;#000000&quot;&gt;&lt;b&gt;+&lt;/b&gt;&lt;/font&gt;" style="text;html=1;strokeColor=none;fillColor=none;align=center;verticalAlign=middle;whiteSpace=wrap;rounded=0;fontSize=12;fontColor=#FFCCCC;" parent="1" vertex="1">
          <mxGeometry x="530" y="-650" width="20" height="20" as="geometry" />
        </mxCell>
        <mxCell id="4S9zkLv07gz2U7jA2SLs-227" value="&lt;font style=&quot;font-size: 14px;&quot; color=&quot;#000000&quot;&gt;&lt;b&gt;+&lt;/b&gt;&lt;/font&gt;" style="text;html=1;strokeColor=none;fillColor=none;align=center;verticalAlign=middle;whiteSpace=wrap;rounded=0;fontSize=12;fontColor=#FFCCCC;" parent="1" vertex="1">
          <mxGeometry x="530" y="-610" width="20" height="20" as="geometry" />
        </mxCell>
        <mxCell id="4S9zkLv07gz2U7jA2SLs-228" value="&lt;font style=&quot;font-size: 14px;&quot; color=&quot;#000000&quot;&gt;&lt;b&gt;+&lt;/b&gt;&lt;/font&gt;" style="text;html=1;strokeColor=none;fillColor=none;align=center;verticalAlign=middle;whiteSpace=wrap;rounded=0;fontSize=12;fontColor=#FFCCCC;" parent="1" vertex="1">
          <mxGeometry x="570" y="-930" width="20" height="20" as="geometry" />
        </mxCell>
        <mxCell id="4S9zkLv07gz2U7jA2SLs-229" value="&lt;font style=&quot;font-size: 14px;&quot; color=&quot;#000000&quot;&gt;&lt;b&gt;+&lt;/b&gt;&lt;/font&gt;" style="text;html=1;strokeColor=none;fillColor=none;align=center;verticalAlign=middle;whiteSpace=wrap;rounded=0;fontSize=12;fontColor=#FFCCCC;" parent="1" vertex="1">
          <mxGeometry x="600" y="-930" width="20" height="20" as="geometry" />
        </mxCell>
        <mxCell id="4S9zkLv07gz2U7jA2SLs-230" value="&lt;font style=&quot;font-size: 14px;&quot; color=&quot;#000000&quot;&gt;&lt;b&gt;+&lt;/b&gt;&lt;/font&gt;" style="text;html=1;strokeColor=none;fillColor=none;align=center;verticalAlign=middle;whiteSpace=wrap;rounded=0;fontSize=12;fontColor=#FFCCCC;" parent="1" vertex="1">
          <mxGeometry x="660" y="-930" width="20" height="20" as="geometry" />
        </mxCell>
        <mxCell id="4S9zkLv07gz2U7jA2SLs-231" value="&lt;font style=&quot;font-size: 14px;&quot; color=&quot;#000000&quot;&gt;&lt;b&gt;+&lt;/b&gt;&lt;/font&gt;" style="text;html=1;strokeColor=none;fillColor=none;align=center;verticalAlign=middle;whiteSpace=wrap;rounded=0;fontSize=12;fontColor=#FFCCCC;" parent="1" vertex="1">
          <mxGeometry x="630" y="-930" width="20" height="20" as="geometry" />
        </mxCell>
        <mxCell id="4S9zkLv07gz2U7jA2SLs-232" value="&lt;font style=&quot;font-size: 14px;&quot; color=&quot;#000000&quot;&gt;&lt;b&gt;+&lt;/b&gt;&lt;/font&gt;" style="text;html=1;strokeColor=none;fillColor=none;align=center;verticalAlign=middle;whiteSpace=wrap;rounded=0;fontSize=12;fontColor=#FFCCCC;" parent="1" vertex="1">
          <mxGeometry x="720" y="-930" width="20" height="20" as="geometry" />
        </mxCell>
        <mxCell id="4S9zkLv07gz2U7jA2SLs-233" value="&lt;font style=&quot;font-size: 14px;&quot; color=&quot;#000000&quot;&gt;&lt;b&gt;+&lt;/b&gt;&lt;/font&gt;" style="text;html=1;strokeColor=none;fillColor=none;align=center;verticalAlign=middle;whiteSpace=wrap;rounded=0;fontSize=12;fontColor=#FFCCCC;" parent="1" vertex="1">
          <mxGeometry x="690" y="-930" width="20" height="20" as="geometry" />
        </mxCell>
        <mxCell id="4S9zkLv07gz2U7jA2SLs-234" value="&lt;font style=&quot;font-size: 14px;&quot; color=&quot;#000000&quot;&gt;&lt;b&gt;+&lt;/b&gt;&lt;/font&gt;" style="text;html=1;strokeColor=none;fillColor=none;align=center;verticalAlign=middle;whiteSpace=wrap;rounded=0;fontSize=12;fontColor=#FFCCCC;" parent="1" vertex="1">
          <mxGeometry x="780" y="-930" width="20" height="20" as="geometry" />
        </mxCell>
        <mxCell id="4S9zkLv07gz2U7jA2SLs-235" value="&lt;font style=&quot;font-size: 14px;&quot; color=&quot;#000000&quot;&gt;&lt;b&gt;+&lt;/b&gt;&lt;/font&gt;" style="text;html=1;strokeColor=none;fillColor=none;align=center;verticalAlign=middle;whiteSpace=wrap;rounded=0;fontSize=12;fontColor=#FFCCCC;" parent="1" vertex="1">
          <mxGeometry x="750" y="-930" width="20" height="20" as="geometry" />
        </mxCell>
        <mxCell id="4S9zkLv07gz2U7jA2SLs-236" value="&lt;font style=&quot;font-size: 14px;&quot; color=&quot;#000000&quot;&gt;&lt;b&gt;+&lt;/b&gt;&lt;/font&gt;" style="text;html=1;strokeColor=none;fillColor=none;align=center;verticalAlign=middle;whiteSpace=wrap;rounded=0;fontSize=12;fontColor=#FFCCCC;" parent="1" vertex="1">
          <mxGeometry x="810" y="-930" width="20" height="20" as="geometry" />
        </mxCell>
      </root>
    </mxGraphModel>
  </diagram>
</mxfile>
